<?xml version="1.0" encoding="UTF-8" standalone="no"?>
<!-- Created with Inkscape (http://www.inkscape.org/) -->

<svg
   xmlns:dc="http://purl.org/dc/elements/1.1/"
   xmlns:cc="http://creativecommons.org/ns#"
   xmlns:rdf="http://www.w3.org/1999/02/22-rdf-syntax-ns#"
   xmlns:svg="http://www.w3.org/2000/svg"
   xmlns="http://www.w3.org/2000/svg"
   xmlns:sodipodi="http://sodipodi.sourceforge.net/DTD/sodipodi-0.dtd"
   xmlns:inkscape="http://www.inkscape.org/namespaces/inkscape"
   width="21.250002"
   height="21.249603"
   id="svg2"
   version="1.1"
   inkscape:version="0.48.2 r9819"
   sodipodi:docname="cake.pdf">
  <defs
     id="defs4" />
  <sodipodi:namedview
     id="base"
     pagecolor="#ffffff"
     bordercolor="#666666"
     borderopacity="1.0"
     inkscape:pageopacity="0.0"
     inkscape:pageshadow="2"
     inkscape:zoom="15.839192"
     inkscape:cx="21.130087"
     inkscape:cy="6.0277755"
     inkscape:document-units="px"
     inkscape:current-layer="layer1"
     showgrid="false"
     fit-margin-top="0"
     fit-margin-left="0"
     fit-margin-right="0"
     fit-margin-bottom="0"
     inkscape:window-width="1680"
     inkscape:window-height="975"
     inkscape:window-x="0"
     inkscape:window-y="24"
     inkscape:window-maximized="1" />
  <metadata
     id="metadata7">
    <rdf:RDF>
      <cc:Work
         rdf:about="">
        <dc:format>image/svg+xml</dc:format>
        <dc:type
           rdf:resource="http://purl.org/dc/dcmitype/StillImage" />
        <dc:title></dc:title>
      </cc:Work>
    </rdf:RDF>
  </metadata>
  <g
     inkscape:label="Calque 1"
     inkscape:groupmode="layer"
     id="layer1"
     transform="translate(-433.30357,-90.66595)">
    <path
       style="fill:#000000;fill-opacity:1"
       d="m 440.53895,108.59844 c -0.82941,-0.0985 -1.5195,-0.26177 -2.1656,-0.51198 -0.74456,-0.28832 -1.35871,-0.74303 -1.70714,-1.26391 l -0.11353,-0.16978 -0.0143,-4.34477 c -0.008,-2.389641 -0.0106,-4.350332 -0.007,-4.357097 0.0106,-0.01641 2.16032,-0.261767 2.21392,-0.252611 0.04,0.0069 0.0992,0.192297 0.0621,0.194062 -0.13833,0.0065 -1.93169,0.225702 -1.94348,0.237484 -0.0276,0.02765 0.22905,0.338869 0.46169,0.559772 0.26474,0.251407 0.68843,0.534938 1.0561,0.706749 0.89182,0.416756 2.12462,0.676771 3.02891,0.638851 l 0.33277,-0.0139 3.58482,-1.304894 c 1.97164,-0.717687 4.00422,-1.456773 4.51685,-1.642412 0.51263,-0.18564 0.96288,-0.349008 1.00055,-0.363039 0.13106,-0.04881 0.0397,-0.05171 -0.32869,-0.01049 -0.2039,0.02285 -0.55786,0.06141 -0.78657,0.0857 -0.22872,0.02429 -0.77719,0.08263 -1.21884,0.129649 -1.61875,0.172362 -3.83222,0.40564 -4.50253,0.474523 -0.37854,0.03891 -0.73021,0.07781 -0.78148,0.08648 -0.0924,0.01561 -0.0932,0.01474 -0.0932,-0.100265 0,-0.101048 0.008,-0.116079 0.0645,-0.116504 0.0354,-2.92e-4 0.18068,-0.01275 0.32265,-0.02774 0.14194,-0.01499 1.05823,-0.111884 2.03616,-0.215349 0.97793,-0.103451 1.90067,-0.200857 2.05051,-0.216443 0.14985,-0.01559 0.69364,-0.07318 1.20844,-0.12799 0.5148,-0.05481 1.12781,-0.119691 1.36224,-0.144196 0.23442,-0.0245 0.69724,-0.07413 1.02847,-0.110277 0.33124,-0.03616 0.61058,-0.05819 0.62074,-0.04897 0.0106,0.0092 0.0265,0.05562 0.0366,0.103106 l 0.0182,0.08635 -3.73615,1.357276 c -2.05488,0.746502 -4.32334,1.572303 -5.04102,1.835119 l -1.30488,0.477834 -0.63092,-0.003 c -0.54485,-0.003 -0.68766,-0.0133 -1.04676,-0.0771 -0.9811,-0.17537 -1.86397,-0.508461 -2.50233,-0.944073 -0.25465,-0.173776 -0.64452,-0.530579 -0.80829,-0.739751 l -0.0786,-0.100384 0.0154,4.108158 0.0154,4.10816 0.10237,0.15424 c 0.13465,0.20288 0.52346,0.57281 0.77687,0.73918 0.61409,0.40317 1.5322,0.71429 2.56528,0.86933 0.35421,0.0531 1.19035,0.0899 1.38392,0.061 l 0.13519,-0.0203 0.008,-0.85032 0.008,-0.8503 0.28679,-0.10729 c 0.15773,-0.059 1.59022,-0.58001 3.18331,-1.15789 2.49611,-0.90543 6.46468,-2.34608 6.57454,-2.38665 0.0281,-0.0106 0.0358,0.1906 0.0358,0.94566 l 0,0.95891 -0.48037,0.17481 c -0.26418,0.0961 -1.99673,0.72521 -3.85008,1.39793 -1.85335,0.67269 -3.9178,1.42219 -4.58768,1.66549 l -1.21796,0.44241 -0.53142,-0.004 c -0.29228,-0.003 -0.57015,-0.009 -0.61746,-0.0145 z m 1.19016,-3.74342 0,-0.95564 0.88186,-0.32036 c 1.86657,-0.67807 7.04148,-2.55657 8.09083,-2.93697 0.60524,-0.21941 1.10531,-0.3989 1.11129,-0.3989 0.005,0 0.0106,0.42943 0.0106,0.9543 l 0,0.95433 -2.20107,0.79902 c -1.21059,0.43946 -3.45287,1.25366 -4.98288,1.80932 -1.53,0.55569 -2.81085,1.01937 -2.84633,1.03041 l -0.0645,0.02 0,-0.95561 z m 0,-2.78529 0,-0.95522 1.46976,-0.53392 c 0.80839,-0.29365 3.05714,-1.110744 4.99723,-1.815754 1.94011,-0.705009 3.55004,-1.288215 3.57765,-1.296015 0.047,-0.01331 0.0502,0.04503 0.0498,0.942724 l -3.6e-4,0.956903 -0.92457,0.334749 c -0.86443,0.312973 -7.26916,2.637773 -8.56492,3.108893 -0.32197,0.11712 -0.58975,0.21287 -0.59506,0.21287 -0.005,0 -0.0106,-0.42986 -0.0106,-0.95523 z m -1.27619,-3.071978 c -0.45495,-0.105085 -0.78861,-0.274739 -1.04754,-0.532644 -0.29836,-0.297172 -0.41055,-0.601639 -0.4078,-1.106724 7.3e-4,-0.143372 0.0222,-0.343405 0.0475,-0.444517 0.14156,-0.563952 0.54464,-1.027314 1.02323,-1.176271 0.33271,-0.103544 0.64736,-0.05897 0.93582,0.132545 0.14037,0.0932 0.15528,0.112573 0.13936,0.181007 -0.0106,0.04215 -0.0258,0.125029 -0.0353,0.184181 -0.0222,0.136333 0.005,0.137871 0.2664,0.01495 0.14997,-0.07056 0.2458,-0.09517 0.40269,-0.103412 0.27992,-0.0147 0.46181,0.06873 0.72342,0.331805 0.22395,0.225216 0.32991,0.449949 0.3826,0.811458 0.10742,0.736999 -0.37603,1.39296 -1.22588,1.663332 -0.2567,0.08166 -0.93474,0.106599 -1.20451,0.04428 z m 0.98968,-3.045461 c 3.7e-4,-0.05991 0.15399,-0.264562 0.29523,-0.393141 0.0505,-0.04589 0.24974,-0.224995 0.44296,-0.398008 0.19322,-0.173011 0.35098,-0.32957 0.35054,-0.34791 -0.001,-0.05052 -0.21583,-0.327777 -0.47332,-0.611352 -0.4126,-0.454398 -0.47537,-0.584945 -0.35488,-0.738132 0.0498,-0.06323 0.24641,-0.189478 0.29517,-0.189478 0.008,0 0.0555,0.07421 0.10675,0.164901 0.0514,0.09069 0.23151,0.371387 0.40027,0.623758 0.34291,0.512811 0.51198,0.822881 0.45843,0.840733 -0.058,0.01936 -0.43229,0.327523 -0.73282,0.603473 -0.35336,0.324466 -0.54465,0.459499 -0.68265,0.481894 -0.0908,0.01474 -0.10596,0.0094 -0.10583,-0.03673 z"
       id="path2998"
       inkscape:connector-curvature="0"
       sodipodi:nodetypes="ccscsssssscsscsssssscsssssscccsscsssscccsssscccsscscssscccccccssscssccccccsscccsssccsssssscssssssscsccssssassscscc" />
  </g>
</svg>
