<?xml version="1.0" encoding="UTF-8" standalone="no"?>
<!-- Created with Inkscape (http://www.inkscape.org/) -->

<svg
   xmlns:dc="http://purl.org/dc/elements/1.1/"
   xmlns:cc="http://creativecommons.org/ns#"
   xmlns:rdf="http://www.w3.org/1999/02/22-rdf-syntax-ns#"
   xmlns:svg="http://www.w3.org/2000/svg"
   xmlns="http://www.w3.org/2000/svg"
   xmlns:sodipodi="http://sodipodi.sourceforge.net/DTD/sodipodi-0.dtd"
   xmlns:inkscape="http://www.inkscape.org/namespaces/inkscape"
   width="140.90625"
   height="138.1875"
   id="svg3809"
   version="1.1"
   inkscape:version="0.48.2 r9819"
   sodipodi:docname="friend.svg">
  <defs
     id="defs3811" />
  <sodipodi:namedview
     id="base"
     pagecolor="#ffffff"
     bordercolor="#666666"
     borderopacity="1.0"
     inkscape:pageopacity="0.0"
     inkscape:pageshadow="2"
     inkscape:zoom="3.5498828"
     inkscape:cx="112.72415"
     inkscape:cy="52.427018"
     inkscape:document-units="px"
     inkscape:current-layer="layer1"
     showgrid="false"
     inkscape:object-paths="true"
     inkscape:snap-intersection-paths="true"
     inkscape:object-nodes="true"
     inkscape:snap-smooth-nodes="true"
     inkscape:snap-midpoints="true"
     inkscape:snap-object-midpoints="true"
     inkscape:snap-center="true"
     inkscape:window-width="1680"
     inkscape:window-height="975"
     inkscape:window-x="0"
     inkscape:window-y="24"
     inkscape:window-maximized="1"
     inkscape:snap-global="false"
     fit-margin-top="0"
     fit-margin-left="0"
     fit-margin-right="0"
     fit-margin-bottom="0" />
  <metadata
     id="metadata3814">
    <rdf:RDF>
      <cc:Work
         rdf:about="">
        <dc:format>image/svg+xml</dc:format>
        <dc:type
           rdf:resource="http://purl.org/dc/dcmitype/StillImage" />
        <dc:title></dc:title>
      </cc:Work>
    </rdf:RDF>
  </metadata>
  <g
     inkscape:label="Calque 1"
     inkscape:groupmode="layer"
     id="layer1"
     transform="translate(-24,-124.28125)">
    <path
       style="fill:#ffffff;fill-opacity:1;stroke:#000000;stroke-width:1px;stroke-linecap:butt;stroke-linejoin:miter;stroke-opacity:1"
       d="m 24.496199,142.71981 0.252538,91.67135 71.468293,27.52666 67.42768,-28.28428 0.75762,-90.15611 -72.478448,-18.68782 z"
       id="path3828"
       inkscape:connector-curvature="0" />
    <path
       style="fill:#fca6ee;fill-opacity:1;stroke:#000000;stroke-width:1px;stroke-linecap:butt;stroke-linejoin:miter;stroke-opacity:1"
       d="m 60.104077,216.71349 c -2.185496,-5.8331 -10.810094,-16.85341 -10.794489,-21.02038 0.02865,-7.65046 5.935152,-10.60546 11.804641,0.0597 4.545686,-4.67196 9.575573,-0.73747 9.596449,6.88167 0.01792,6.53928 -7.825584,9.88877 -10.606601,14.079 z"
       id="path4338"
       inkscape:connector-curvature="0"
       sodipodi:nodetypes="cscsc" />
    <path
       style="fill:#fca6ee;fill-opacity:1;stroke:#000000;stroke-width:1px;stroke-linecap:butt;stroke-linejoin:miter;stroke-opacity:1"
       d="m 83.115851,148.46295 c 0.328441,-6.00099 -6.099742,-5.33131 2.968841,-8.70914 6.286601,-2.34161 13.195622,-0.18826 12.057178,2.39568 5.01772,-0.22526 18.66695,2.16672 12.05869,4.41942 -6.18955,2.10997 -20.768158,-0.40216 -27.084709,1.89404 z"
       id="path4338-0"
       inkscape:connector-curvature="0"
       sodipodi:nodetypes="cscsc" />
    <path
       style="fill:#fca6ee;fill-opacity:1;stroke:#000000;stroke-width:1px;stroke-linecap:butt;stroke-linejoin:miter;stroke-opacity:1"
       d="m 129.77227,217.02706 c -2.89115,-2.87814 -8.00968,-3.94399 -10.03687,-11.92901 -1.78394,-7.02692 3.59918,-15.65622 9.15299,-8.14779 3.15672,-7.95496 10.77013,-8.37258 10.9854,-3.03045 0.32712,8.11746 -7.00483,14.24505 -10.10152,23.10725 z"
       id="path4338-2"
       inkscape:connector-curvature="0"
       sodipodi:nodetypes="cscsc" />
    <path
       style="fill:none;stroke:#000000;stroke-width:1px;stroke-linecap:butt;stroke-linejoin:miter;stroke-opacity:1"
       d="m 24.496199,142.71981 71.720831,25.88516 68.1853,-25.12754"
       id="path4373"
       inkscape:connector-curvature="0" />
    <path
       style="fill:none;stroke:#000000;stroke-width:1px;stroke-linecap:butt;stroke-linejoin:miter;stroke-opacity:1"
       d="m 96.21703,168.60497 0,93.31285"
       id="path4375"
       inkscape:connector-curvature="0" />
    <path
       id="path4464"
       style="opacity:0.98999999;color:#000000;fill:#b9b9b9;fill-opacity:1;stroke:#000000;stroke-width:1;stroke-linecap:butt;stroke-linejoin:round;stroke-miterlimit:4;stroke-opacity:1;stroke-dashoffset:0;marker:none;visibility:visible;display:inline;overflow:visible;enable-background:accumulate"
       d="m 44.692293,136.68609 11.764165,3.86758 c 0,0 -0.29325,1.51453 -0.168969,2.2595 0.128912,0.77275 0.926584,2.15991 0.926584,2.15991 l -11.368704,5.41306 0.130756,16.43149 c 0,0 -3.408652,2.32551 -4.814252,3.83518 -1.405599,1.50967 -3.519506,5.12993 -3.519506,5.12993 l -14.065261,-5.55536 0.01496,5.42918 11.524923,4.67186 c 0,0 -2.197008,3.63486 -2.516569,9.91922 -0.319561,6.28436 2.26403,10.91518 2.26403,10.91518 l -11.214988,-4.67167 0.0247,8.96503 14.220746,4.41921 c 0,0 1.675567,4.98598 2.928171,7.25337 1.252604,2.2674 4.521704,6.25742 4.521704,6.25742 l 0.200495,19.00018 5.862697,2.25807 0.123989,-14.06092 c 0,0 4.89013,4.05885 7.669501,4.94235 2.779371,0.88351 8.366671,0.36095 8.366671,0.36095 l -0.306898,14.86365 5.363669,2.06586 -0.258546,-16.5507 c 0,0 3.557582,-2.23247 4.936972,-3.83873 1.379391,-1.60625 3.144248,-5.63145 3.144248,-5.63145 l 14.773481,5.3033 12.879448,-4.92449 c 0,0 1.8062,4.02547 3.2803,5.61456 1.28734,1.38777 4.67465,3.22427 4.67465,3.22427 l -0.51191,16.98157 5.21313,-2.18679 0.097,-14.66851 c 0,0 4.93672,0.30828 7.2409,-0.42408 3.008,-0.95606 8.03766,-5.00549 8.03766,-5.00549 l -0.23845,13.74844 5.67038,-2.37859 0.50271,-18.31465 c 0,0 3.29718,-3.97763 4.46836,-6.25742 1.16743,-2.27249 2.47644,-7.25337 2.47644,-7.25337 l 13.86521,-4.16814 0.0711,-8.45731 -10.65329,4.29169 c 0,0 1.92207,-6.2307 1.90211,-9.44082 -0.0225,-3.62586 -2.28092,-10.63596 -2.28092,-10.63596 l 11.19869,-4.04094 0.0488,-5.81012 -13.52036,5.55788 c 0,0 -1.9199,-3.78982 -3.30698,-5.36913 -1.38795,-1.5803 -4.90051,-3.97478 -4.90051,-3.97478 l 0.36199,-17.16429 -12.9889,-4.80652 c 0,0 0.7873,-1.5958 0.77009,-2.45247 -0.0203,-1.00936 -1.02263,-2.85084 -1.02263,-2.85084 l 10.35471,-4.16935 -6.28993,-1.62179 -7.85284,2.50815 c 0,0 -4.43715,-1.88123 -6.76249,-2.47827 -2.53388,-0.65059 -7.75845,-1.18353 -7.75845,-1.18353 l 7.46019,-2.69167 -6.76353,-1.7439 -8.90415,3.55168 c 0,0 -6.218416,-0.9581 -9.313688,-0.81634 -2.930036,0.1342 -8.616518,1.57396 -8.616518,1.57396 l -12.038783,-4.45569 -7.899984,2.10074 7.943206,2.86002 c 0,0 -5.094615,0.50563 -7.468593,1.38627 -1.728102,0.64105 -4.779507,2.78061 -4.779507,2.78061 l -9.930625,-3.24142 m 1.218069,31.52572 -0.199974,-15.06577 8.786271,-3.49578 c 0,0 3.753783,2.84556 5.892803,3.77743 2.80215,1.22076 8.880678,2.28349 8.880678,2.28349 l -7.278316,3.78885 -0.424097,14.26762 c 0,0 -5.082837,-3.91441 -7.778885,-4.81963 -2.696047,-0.90523 -7.87848,-0.73621 -7.87848,-0.73621 z m 33.082496,-11.74302 c 0,0 5.343097,0.817 8.03142,0.75675 2.735956,-0.0613 8.131017,-1.13556 8.131017,-1.13556 l 14.9983,6.07581 0.40653,19.68308 c 0,0 -3.56453,3.93517 -4.79382,6.25742 -1.19164,2.25113 -2.40352,7.25337 -2.40352,7.25337 l -13.384518,3.91434 -14.773481,-4.67195 c 0,0 -1.578019,-4.97432 -2.828575,-7.26671 -1.250557,-2.29239 -4.6213,-6.37035 -4.6213,-6.37035 l -0.0907,-19.41771 z m 29.420687,-0.37881 c 0,0 4.83068,-0.83208 7.04709,-1.81843 1.99191,-0.88644 5.45355,-3.61114 5.45355,-3.61114 l 10.45626,3.68658 0.15034,15.25378 c 0,0 -5.46858,-0.33047 -8.0012,0.52368 -2.80526,0.9461 -7.40362,4.90589 -7.40362,4.90589 l 0.22247,-15.14378 z m -7.70241,64.5235 -10.732868,5.55584 -12.374369,-5.55584 c 0,0 1.435818,-5.82344 1.390793,-9.15182 -0.04503,-3.32838 -1.895869,-10.54616 -1.895869,-10.54616 l 12.879445,5.05076 11.237948,-4.16687 c 0,0 -2.07361,6.32609 -2.14486,9.60624 -0.0677,3.11684 1.63978,9.20785 1.63978,9.20785 z m -42.65197,5.84977 c -8.519845,0 -17.346254,-10.16519 -19.714335,-22.70459 -2.36808,-12.53939 2.618911,-22.70458 11.138756,-22.70458 8.519846,0 17.346255,10.16519 19.714335,22.70458 2.368081,12.5394 -2.61891,22.70459 -11.138756,22.70459 z m 61.24511,0.93282 c -8.18981,0 -12.99652,-10.16519 -10.73607,-22.70459 2.26044,-12.53939 10.73204,-22.70458 18.92185,-22.70458 8.18982,0 12.99652,10.16519 10.73608,22.70458 -2.26044,12.5394 -10.73204,22.70459 -18.92186,22.70459 z M 93.47065,150.97046 c -12.211163,0 -22.110266,-3.2997 -22.110266,-7.37009 0,-4.07039 9.899103,-7.37009 22.110266,-7.37009 12.21116,0 22.11027,3.2997 22.11027,7.37009 0,4.07039 -9.89911,7.37009 -22.11027,7.37009 z"
       transform="translate(0.9959579,0.39838316)"
       inkscape:connector-curvature="0"
       sodipodi:nodetypes="ccaccczcccczcccczcccczcccczcccaccccaccccaccccaccccacccsccccsccccsccccacccccsccczccscccaccczccccscccacccccczcccacsssssssssssssss" />
  </g>
</svg>
